<svg width="21" height="18" viewBox="0 0 21 18" fill="none" xmlns="http://www.w3.org/2000/svg">
<path d="M0.988037 18C0.804703 18 0.638037 17.9543 0.488037 17.863C0.338037 17.771 0.22137 17.65 0.138037 17.5C0.0547034 17.35 0.00903681 17.1873 0.00103681 17.012C-0.00762986 16.8373 0.0380368 16.6667 0.138037 16.5L9.38804 0.5C9.48804 0.333333 9.61704 0.208333 9.77504 0.125C9.9337 0.0416667 10.0964 0 10.263 0C10.4297 0 10.5924 0.0416667 10.751 0.125C10.909 0.208333 11.038 0.333333 11.138 0.5L20.388 16.5C20.488 16.6667 20.534 16.8373 20.526 17.012C20.5174 17.1873 20.4714 17.35 20.388 17.5C20.3047 17.65 20.188 17.771 20.038 17.863C19.888 17.9543 19.7214 18 19.538 18H0.988037ZM10.263 15C10.5464 15 10.784 14.904 10.976 14.712C11.1674 14.5207 11.263 14.2833 11.263 14C11.263 13.7167 11.1674 13.4793 10.976 13.288C10.784 13.096 10.5464 13 10.263 13C9.9797 13 9.74237 13.096 9.55104 13.288C9.35904 13.4793 9.26304 13.7167 9.26304 14C9.26304 14.2833 9.35904 14.5207 9.55104 14.712C9.74237 14.904 9.9797 15 10.263 15ZM10.263 12C10.5464 12 10.784 11.904 10.976 11.712C11.1674 11.5207 11.263 11.2833 11.263 11V8C11.263 7.71667 11.1674 7.479 10.976 7.287C10.784 7.09567 10.5464 7 10.263 7C9.9797 7 9.74237 7.09567 9.55104 7.287C9.35904 7.479 9.26304 7.71667 9.26304 8V11C9.26304 11.2833 9.35904 11.5207 9.55104 11.712C9.74237 11.904 9.9797 12 10.263 12Z" fill="white"/>
</svg>
